<mxfile host="app.diagrams.net" agent="Mozilla/5.0 (Windows NT 10.0; Win64; x64) AppleWebKit/537.36 (KHTML, like Gecko) Chrome/131.0.0.0 Safari/537.36 Edg/131.0.0.0" version="26.0.6">
  <diagram name="PÃ¡gina-1" id="ExqudZuJz466OZrDaffV">
    <mxGraphModel dx="1434" dy="770" grid="1" gridSize="10" guides="1" tooltips="1" connect="1" arrows="1" fold="1" page="1" pageScale="1" pageWidth="827" pageHeight="1169" math="0" shadow="0">
      <root>
        <mxCell id="0" />
        <mxCell id="1" parent="0" />
        <mxCell id="1c-ywWwe2SpVqT2UneLm-4" value="1" style="edgeStyle=orthogonalEdgeStyle;rounded=0;orthogonalLoop=1;jettySize=auto;html=1;exitX=0.5;exitY=0;exitDx=0;exitDy=0;entryX=0.5;entryY=1;entryDx=0;entryDy=0;" edge="1" parent="1" source="1c-ywWwe2SpVqT2UneLm-1" target="1c-ywWwe2SpVqT2UneLm-3">
          <mxGeometry relative="1" as="geometry" />
        </mxCell>
        <mxCell id="1c-ywWwe2SpVqT2UneLm-52" style="edgeStyle=orthogonalEdgeStyle;rounded=0;orthogonalLoop=1;jettySize=auto;html=1;exitX=0;exitY=0.5;exitDx=0;exitDy=0;entryX=1;entryY=0.5;entryDx=0;entryDy=0;" edge="1" parent="1" source="1c-ywWwe2SpVqT2UneLm-1" target="1c-ywWwe2SpVqT2UneLm-6">
          <mxGeometry relative="1" as="geometry" />
        </mxCell>
        <mxCell id="1c-ywWwe2SpVqT2UneLm-53" style="edgeStyle=orthogonalEdgeStyle;rounded=0;orthogonalLoop=1;jettySize=auto;html=1;exitX=0;exitY=0.5;exitDx=0;exitDy=0;entryX=1;entryY=0.5;entryDx=0;entryDy=0;" edge="1" parent="1" source="1c-ywWwe2SpVqT2UneLm-1" target="1c-ywWwe2SpVqT2UneLm-7">
          <mxGeometry relative="1" as="geometry" />
        </mxCell>
        <mxCell id="1c-ywWwe2SpVqT2UneLm-54" style="edgeStyle=orthogonalEdgeStyle;rounded=0;orthogonalLoop=1;jettySize=auto;html=1;exitX=0;exitY=0.5;exitDx=0;exitDy=0;entryX=1;entryY=0.5;entryDx=0;entryDy=0;" edge="1" parent="1" source="1c-ywWwe2SpVqT2UneLm-1" target="1c-ywWwe2SpVqT2UneLm-8">
          <mxGeometry relative="1" as="geometry" />
        </mxCell>
        <mxCell id="1c-ywWwe2SpVqT2UneLm-55" style="edgeStyle=orthogonalEdgeStyle;rounded=0;orthogonalLoop=1;jettySize=auto;html=1;exitX=0;exitY=0.5;exitDx=0;exitDy=0;entryX=1;entryY=0.5;entryDx=0;entryDy=0;" edge="1" parent="1" source="1c-ywWwe2SpVqT2UneLm-1" target="1c-ywWwe2SpVqT2UneLm-9">
          <mxGeometry relative="1" as="geometry" />
        </mxCell>
        <mxCell id="1c-ywWwe2SpVqT2UneLm-60" style="edgeStyle=orthogonalEdgeStyle;rounded=0;orthogonalLoop=1;jettySize=auto;html=1;exitX=1;exitY=0.5;exitDx=0;exitDy=0;entryX=0;entryY=0.5;entryDx=0;entryDy=0;" edge="1" parent="1" source="1c-ywWwe2SpVqT2UneLm-1" target="1c-ywWwe2SpVqT2UneLm-59">
          <mxGeometry relative="1" as="geometry" />
        </mxCell>
        <mxCell id="1c-ywWwe2SpVqT2UneLm-73" style="edgeStyle=orthogonalEdgeStyle;rounded=0;orthogonalLoop=1;jettySize=auto;html=1;exitX=0;exitY=0.5;exitDx=0;exitDy=0;entryX=1;entryY=0.5;entryDx=0;entryDy=0;" edge="1" parent="1" source="1c-ywWwe2SpVqT2UneLm-1" target="1c-ywWwe2SpVqT2UneLm-72">
          <mxGeometry relative="1" as="geometry" />
        </mxCell>
        <mxCell id="1c-ywWwe2SpVqT2UneLm-1" value="user" style="ellipse;whiteSpace=wrap;html=1;fillColor=#d5e8d4;strokeColor=#82b366;" vertex="1" parent="1">
          <mxGeometry x="146.5" y="560" width="60" height="40" as="geometry" />
        </mxCell>
        <mxCell id="1c-ywWwe2SpVqT2UneLm-18" style="edgeStyle=orthogonalEdgeStyle;rounded=0;orthogonalLoop=1;jettySize=auto;html=1;exitX=0.5;exitY=0;exitDx=0;exitDy=0;entryX=0.5;entryY=1;entryDx=0;entryDy=0;" edge="1" parent="1" source="1c-ywWwe2SpVqT2UneLm-2" target="1c-ywWwe2SpVqT2UneLm-14">
          <mxGeometry relative="1" as="geometry" />
        </mxCell>
        <mxCell id="1c-ywWwe2SpVqT2UneLm-20" style="edgeStyle=orthogonalEdgeStyle;rounded=0;orthogonalLoop=1;jettySize=auto;html=1;exitX=0.5;exitY=0;exitDx=0;exitDy=0;entryX=0.5;entryY=1;entryDx=0;entryDy=0;" edge="1" parent="1" source="1c-ywWwe2SpVqT2UneLm-2" target="1c-ywWwe2SpVqT2UneLm-17">
          <mxGeometry relative="1" as="geometry" />
        </mxCell>
        <mxCell id="1c-ywWwe2SpVqT2UneLm-38" style="edgeStyle=orthogonalEdgeStyle;rounded=0;orthogonalLoop=1;jettySize=auto;html=1;exitX=0.5;exitY=0;exitDx=0;exitDy=0;entryX=0.5;entryY=1;entryDx=0;entryDy=0;" edge="1" parent="1" source="1c-ywWwe2SpVqT2UneLm-2" target="1c-ywWwe2SpVqT2UneLm-37">
          <mxGeometry relative="1" as="geometry" />
        </mxCell>
        <mxCell id="1c-ywWwe2SpVqT2UneLm-40" value="1" style="edgeStyle=orthogonalEdgeStyle;rounded=0;orthogonalLoop=1;jettySize=auto;html=1;exitX=1;exitY=0.5;exitDx=0;exitDy=0;entryX=0;entryY=0.5;entryDx=0;entryDy=0;" edge="1" parent="1" source="1c-ywWwe2SpVqT2UneLm-2" target="1c-ywWwe2SpVqT2UneLm-39">
          <mxGeometry relative="1" as="geometry" />
        </mxCell>
        <mxCell id="1c-ywWwe2SpVqT2UneLm-71" style="edgeStyle=orthogonalEdgeStyle;rounded=0;orthogonalLoop=1;jettySize=auto;html=1;exitX=0.5;exitY=0;exitDx=0;exitDy=0;entryX=0.5;entryY=1;entryDx=0;entryDy=0;" edge="1" parent="1" source="1c-ywWwe2SpVqT2UneLm-2" target="1c-ywWwe2SpVqT2UneLm-70">
          <mxGeometry relative="1" as="geometry" />
        </mxCell>
        <mxCell id="1c-ywWwe2SpVqT2UneLm-77" style="edgeStyle=orthogonalEdgeStyle;rounded=0;orthogonalLoop=1;jettySize=auto;html=1;exitX=0.5;exitY=0;exitDx=0;exitDy=0;entryX=0.5;entryY=1;entryDx=0;entryDy=0;" edge="1" parent="1" source="1c-ywWwe2SpVqT2UneLm-2" target="1c-ywWwe2SpVqT2UneLm-76">
          <mxGeometry relative="1" as="geometry" />
        </mxCell>
        <mxCell id="1c-ywWwe2SpVqT2UneLm-2" value="schedule" style="ellipse;whiteSpace=wrap;html=1;fillColor=#d5e8d4;strokeColor=#82b366;" vertex="1" parent="1">
          <mxGeometry x="210.5" y="370" width="80" height="50" as="geometry" />
        </mxCell>
        <mxCell id="1c-ywWwe2SpVqT2UneLm-56" value="N" style="edgeStyle=orthogonalEdgeStyle;rounded=0;orthogonalLoop=1;jettySize=auto;html=1;exitX=0.5;exitY=0;exitDx=0;exitDy=0;entryX=0;entryY=0.5;entryDx=0;entryDy=0;" edge="1" parent="1" source="1c-ywWwe2SpVqT2UneLm-3" target="1c-ywWwe2SpVqT2UneLm-2">
          <mxGeometry relative="1" as="geometry" />
        </mxCell>
        <mxCell id="1c-ywWwe2SpVqT2UneLm-3" value="PERFORMS" style="rounded=0;whiteSpace=wrap;html=1;fillColor=#ffe6cc;strokeColor=#d79b00;" vertex="1" parent="1">
          <mxGeometry x="136.5" y="460" width="80" height="30" as="geometry" />
        </mxCell>
        <mxCell id="1c-ywWwe2SpVqT2UneLm-6" value="name" style="ellipse;whiteSpace=wrap;html=1;fillColor=#f5f5f5;fontColor=#333333;strokeColor=#666666;" vertex="1" parent="1">
          <mxGeometry x="16.5" y="520" width="70" height="40" as="geometry" />
        </mxCell>
        <mxCell id="1c-ywWwe2SpVqT2UneLm-7" value="lastName" style="ellipse;whiteSpace=wrap;html=1;fillColor=#f5f5f5;fontColor=#333333;strokeColor=#666666;" vertex="1" parent="1">
          <mxGeometry x="16.5" y="560" width="70" height="40" as="geometry" />
        </mxCell>
        <mxCell id="1c-ywWwe2SpVqT2UneLm-8" value="email" style="ellipse;whiteSpace=wrap;html=1;fillColor=#f5f5f5;fontColor=#333333;strokeColor=#666666;" vertex="1" parent="1">
          <mxGeometry x="16.5" y="600" width="70" height="40" as="geometry" />
        </mxCell>
        <mxCell id="1c-ywWwe2SpVqT2UneLm-9" value="password" style="ellipse;whiteSpace=wrap;html=1;fillColor=#f5f5f5;fontColor=#333333;strokeColor=#666666;" vertex="1" parent="1">
          <mxGeometry x="16.5" y="640" width="70" height="40" as="geometry" />
        </mxCell>
        <mxCell id="1c-ywWwe2SpVqT2UneLm-14" value="date" style="ellipse;whiteSpace=wrap;html=1;fillColor=#f5f5f5;fontColor=#333333;strokeColor=#666666;" vertex="1" parent="1">
          <mxGeometry x="149" y="260" width="70" height="40" as="geometry" />
        </mxCell>
        <mxCell id="1c-ywWwe2SpVqT2UneLm-33" style="edgeStyle=orthogonalEdgeStyle;rounded=0;orthogonalLoop=1;jettySize=auto;html=1;exitX=0.5;exitY=1;exitDx=0;exitDy=0;entryX=0.5;entryY=0;entryDx=0;entryDy=0;" edge="1" parent="1" source="1c-ywWwe2SpVqT2UneLm-16" target="1c-ywWwe2SpVqT2UneLm-32">
          <mxGeometry relative="1" as="geometry" />
        </mxCell>
        <mxCell id="1c-ywWwe2SpVqT2UneLm-16" value="service" style="ellipse;whiteSpace=wrap;html=1;fillColor=#dae8fc;strokeColor=#6c8ebf;gradientColor=#D5E8D4;" vertex="1" parent="1">
          <mxGeometry x="456.5" y="370" width="70" height="50" as="geometry" />
        </mxCell>
        <mxCell id="1c-ywWwe2SpVqT2UneLm-17" value="professional" style="ellipse;whiteSpace=wrap;html=1;fillColor=#dae8fc;strokeColor=#6c8ebf;gradientColor=#D5E8D4;" vertex="1" parent="1">
          <mxGeometry x="289" y="260" width="70" height="40" as="geometry" />
        </mxCell>
        <mxCell id="1c-ywWwe2SpVqT2UneLm-35" value="1" style="edgeStyle=orthogonalEdgeStyle;rounded=0;orthogonalLoop=1;jettySize=auto;html=1;exitX=0.5;exitY=0;exitDx=0;exitDy=0;entryX=0.5;entryY=1;entryDx=0;entryDy=0;" edge="1" parent="1" source="1c-ywWwe2SpVqT2UneLm-21" target="1c-ywWwe2SpVqT2UneLm-34">
          <mxGeometry relative="1" as="geometry" />
        </mxCell>
        <mxCell id="1c-ywWwe2SpVqT2UneLm-50" style="edgeStyle=orthogonalEdgeStyle;rounded=0;orthogonalLoop=1;jettySize=auto;html=1;exitX=1;exitY=0.5;exitDx=0;exitDy=0;" edge="1" parent="1" source="1c-ywWwe2SpVqT2UneLm-21" target="1c-ywWwe2SpVqT2UneLm-27">
          <mxGeometry relative="1" as="geometry" />
        </mxCell>
        <mxCell id="1c-ywWwe2SpVqT2UneLm-51" style="edgeStyle=orthogonalEdgeStyle;rounded=0;orthogonalLoop=1;jettySize=auto;html=1;exitX=1;exitY=0.5;exitDx=0;exitDy=0;" edge="1" parent="1" source="1c-ywWwe2SpVqT2UneLm-21" target="1c-ywWwe2SpVqT2UneLm-28">
          <mxGeometry relative="1" as="geometry" />
        </mxCell>
        <mxCell id="1c-ywWwe2SpVqT2UneLm-67" style="edgeStyle=orthogonalEdgeStyle;rounded=0;orthogonalLoop=1;jettySize=auto;html=1;exitX=0;exitY=0.5;exitDx=0;exitDy=0;" edge="1" parent="1" source="1c-ywWwe2SpVqT2UneLm-21" target="1c-ywWwe2SpVqT2UneLm-64">
          <mxGeometry relative="1" as="geometry" />
        </mxCell>
        <mxCell id="1c-ywWwe2SpVqT2UneLm-21" value="professional" style="ellipse;whiteSpace=wrap;html=1;fillColor=#d5e8d4;strokeColor=#82b366;gradientColor=#A9C4EB;" vertex="1" parent="1">
          <mxGeometry x="586.5" y="552.5" width="70" height="50" as="geometry" />
        </mxCell>
        <mxCell id="1c-ywWwe2SpVqT2UneLm-23" value="ENTITY" style="ellipse;whiteSpace=wrap;html=1;fillColor=#d5e8d4;strokeColor=#82b366;" vertex="1" parent="1">
          <mxGeometry x="40" y="190" width="70" height="50" as="geometry" />
        </mxCell>
        <mxCell id="1c-ywWwe2SpVqT2UneLm-24" value="COLUMNS" style="ellipse;whiteSpace=wrap;html=1;fillColor=#f5f5f5;fontColor=#333333;strokeColor=#666666;" vertex="1" parent="1">
          <mxGeometry x="130" y="190" width="70" height="50" as="geometry" />
        </mxCell>
        <mxCell id="1c-ywWwe2SpVqT2UneLm-25" value="ACTION" style="rounded=0;whiteSpace=wrap;html=1;fillColor=#ffe6cc;strokeColor=#d79b00;" vertex="1" parent="1">
          <mxGeometry x="220" y="190" width="90" height="50" as="geometry" />
        </mxCell>
        <mxCell id="1c-ywWwe2SpVqT2UneLm-27" value="name" style="ellipse;whiteSpace=wrap;html=1;fillColor=#f5f5f5;fontColor=#333333;strokeColor=#666666;" vertex="1" parent="1">
          <mxGeometry x="701.5" y="540" width="70" height="40" as="geometry" />
        </mxCell>
        <mxCell id="1c-ywWwe2SpVqT2UneLm-28" value="lastName" style="ellipse;whiteSpace=wrap;html=1;fillColor=#f5f5f5;fontColor=#333333;strokeColor=#666666;" vertex="1" parent="1">
          <mxGeometry x="701.5" y="580" width="70" height="40" as="geometry" />
        </mxCell>
        <mxCell id="1c-ywWwe2SpVqT2UneLm-32" value="title" style="ellipse;whiteSpace=wrap;html=1;fillColor=#f5f5f5;fontColor=#333333;strokeColor=#666666;" vertex="1" parent="1">
          <mxGeometry x="456.5" y="450" width="70" height="40" as="geometry" />
        </mxCell>
        <mxCell id="1c-ywWwe2SpVqT2UneLm-36" value="1" style="edgeStyle=orthogonalEdgeStyle;rounded=0;orthogonalLoop=1;jettySize=auto;html=1;exitX=0;exitY=0.5;exitDx=0;exitDy=0;entryX=1;entryY=0.5;entryDx=0;entryDy=0;" edge="1" parent="1" source="1c-ywWwe2SpVqT2UneLm-34" target="1c-ywWwe2SpVqT2UneLm-16">
          <mxGeometry relative="1" as="geometry" />
        </mxCell>
        <mxCell id="1c-ywWwe2SpVqT2UneLm-34" value="PERFORMS" style="rounded=0;whiteSpace=wrap;html=1;fillColor=#ffe6cc;strokeColor=#d79b00;" vertex="1" parent="1">
          <mxGeometry x="581.5" y="380" width="80" height="30" as="geometry" />
        </mxCell>
        <mxCell id="1c-ywWwe2SpVqT2UneLm-37" value="time" style="ellipse;whiteSpace=wrap;html=1;fillColor=#f5f5f5;fontColor=#333333;strokeColor=#666666;" vertex="1" parent="1">
          <mxGeometry x="219" y="260" width="70" height="40" as="geometry" />
        </mxCell>
        <mxCell id="1c-ywWwe2SpVqT2UneLm-41" value="1" style="edgeStyle=orthogonalEdgeStyle;rounded=0;orthogonalLoop=1;jettySize=auto;html=1;exitX=1;exitY=0.5;exitDx=0;exitDy=0;entryX=0;entryY=0.5;entryDx=0;entryDy=0;" edge="1" parent="1" source="1c-ywWwe2SpVqT2UneLm-39" target="1c-ywWwe2SpVqT2UneLm-16">
          <mxGeometry relative="1" as="geometry" />
        </mxCell>
        <mxCell id="1c-ywWwe2SpVqT2UneLm-39" value="HAS" style="rounded=0;whiteSpace=wrap;html=1;fillColor=#ffe6cc;strokeColor=#d79b00;" vertex="1" parent="1">
          <mxGeometry x="330.5" y="380" width="80" height="30" as="geometry" />
        </mxCell>
        <mxCell id="1c-ywWwe2SpVqT2UneLm-44" value="ACCESS" style="rounded=0;whiteSpace=wrap;html=1;fillColor=#f8cecc;strokeColor=#b85450;" vertex="1" parent="1">
          <mxGeometry x="330" y="190" width="90" height="50" as="geometry" />
        </mxCell>
        <mxCell id="1c-ywWwe2SpVqT2UneLm-45" value="LOGIN PAGE" style="rounded=0;whiteSpace=wrap;html=1;fillColor=#f8cecc;strokeColor=#b85450;" vertex="1" parent="1">
          <mxGeometry x="165.5" y="680" width="85" height="50" as="geometry" />
        </mxCell>
        <mxCell id="1c-ywWwe2SpVqT2UneLm-46" value="SCHEDULE PAGE" style="rounded=0;whiteSpace=wrap;html=1;fillColor=#f8cecc;strokeColor=#b85450;" vertex="1" parent="1">
          <mxGeometry x="265.5" y="680" width="90" height="50" as="geometry" />
        </mxCell>
        <mxCell id="1c-ywWwe2SpVqT2UneLm-47" value="SERVICE INSERT PAGE" style="rounded=0;whiteSpace=wrap;html=1;fillColor=#f8cecc;strokeColor=#b85450;" vertex="1" parent="1">
          <mxGeometry x="404.5" y="680" width="90" height="50" as="geometry" />
        </mxCell>
        <mxCell id="1c-ywWwe2SpVqT2UneLm-48" value="ALL SCHEDULES PAGE" style="rounded=0;whiteSpace=wrap;html=1;fillColor=#f8cecc;strokeColor=#b85450;" vertex="1" parent="1">
          <mxGeometry x="516.5" y="680" width="90" height="50" as="geometry" />
        </mxCell>
        <mxCell id="1c-ywWwe2SpVqT2UneLm-61" style="edgeStyle=orthogonalEdgeStyle;rounded=0;orthogonalLoop=1;jettySize=auto;html=1;exitX=0.5;exitY=1;exitDx=0;exitDy=0;entryX=0.5;entryY=0;entryDx=0;entryDy=0;" edge="1" parent="1" source="1c-ywWwe2SpVqT2UneLm-59" target="1c-ywWwe2SpVqT2UneLm-45">
          <mxGeometry relative="1" as="geometry" />
        </mxCell>
        <mxCell id="1c-ywWwe2SpVqT2UneLm-62" style="edgeStyle=orthogonalEdgeStyle;rounded=0;orthogonalLoop=1;jettySize=auto;html=1;exitX=0.5;exitY=1;exitDx=0;exitDy=0;entryX=0.5;entryY=0;entryDx=0;entryDy=0;" edge="1" parent="1" source="1c-ywWwe2SpVqT2UneLm-59" target="1c-ywWwe2SpVqT2UneLm-46">
          <mxGeometry relative="1" as="geometry" />
        </mxCell>
        <mxCell id="1c-ywWwe2SpVqT2UneLm-59" value="HAS ACCESS" style="rounded=0;whiteSpace=wrap;html=1;fillColor=#ffe6cc;strokeColor=#d79b00;" vertex="1" parent="1">
          <mxGeometry x="246.5" y="565" width="80" height="30" as="geometry" />
        </mxCell>
        <mxCell id="1c-ywWwe2SpVqT2UneLm-68" style="edgeStyle=orthogonalEdgeStyle;rounded=0;orthogonalLoop=1;jettySize=auto;html=1;exitX=0.5;exitY=1;exitDx=0;exitDy=0;entryX=0.5;entryY=0;entryDx=0;entryDy=0;" edge="1" parent="1" source="1c-ywWwe2SpVqT2UneLm-64" target="1c-ywWwe2SpVqT2UneLm-48">
          <mxGeometry relative="1" as="geometry" />
        </mxCell>
        <mxCell id="1c-ywWwe2SpVqT2UneLm-69" style="edgeStyle=orthogonalEdgeStyle;rounded=0;orthogonalLoop=1;jettySize=auto;html=1;exitX=0.5;exitY=1;exitDx=0;exitDy=0;entryX=0.5;entryY=0;entryDx=0;entryDy=0;" edge="1" parent="1" source="1c-ywWwe2SpVqT2UneLm-64" target="1c-ywWwe2SpVqT2UneLm-47">
          <mxGeometry relative="1" as="geometry" />
        </mxCell>
        <mxCell id="1c-ywWwe2SpVqT2UneLm-64" value="HAS ACCESS" style="rounded=0;whiteSpace=wrap;html=1;fillColor=#ffe6cc;strokeColor=#d79b00;" vertex="1" parent="1">
          <mxGeometry x="465.5" y="562.5" width="80" height="30" as="geometry" />
        </mxCell>
        <mxCell id="1c-ywWwe2SpVqT2UneLm-70" value="userId" style="ellipse;whiteSpace=wrap;html=1;fillColor=#dae8fc;strokeColor=#6c8ebf;gradientColor=#E6E6E6;" vertex="1" parent="1">
          <mxGeometry x="80" y="260" width="70" height="40" as="geometry" />
        </mxCell>
        <mxCell id="1c-ywWwe2SpVqT2UneLm-72" value="userId" style="ellipse;whiteSpace=wrap;html=1;fillColor=#dae8fc;strokeColor=#6c8ebf;gradientColor=#E6E6E6;" vertex="1" parent="1">
          <mxGeometry x="16.5" y="480" width="70" height="40" as="geometry" />
        </mxCell>
        <mxCell id="1c-ywWwe2SpVqT2UneLm-75" value="FOREIGN KEY" style="ellipse;whiteSpace=wrap;html=1;fillColor=#dae8fc;strokeColor=#6c8ebf;" vertex="1" parent="1">
          <mxGeometry x="440" y="190" width="70" height="50" as="geometry" />
        </mxCell>
        <mxCell id="1c-ywWwe2SpVqT2UneLm-76" value="service" style="ellipse;whiteSpace=wrap;html=1;fillColor=#dae8fc;strokeColor=#6c8ebf;gradientColor=#D5E8D4;" vertex="1" parent="1">
          <mxGeometry x="359" y="260" width="70" height="40" as="geometry" />
        </mxCell>
      </root>
    </mxGraphModel>
  </diagram>
</mxfile>
